<svg width="40" height="40" viewBox="0 0 40 40" fill="none" xmlns="http://www.w3.org/2000/svg">
<path d="M35 15C35 23.2843 20.2843 40 20 40C19.7157 40 5 23.2843 5 15C5 6.71573 11.7157 0 20 0C28.2843 0 35 6.71573 35 15Z" fill="#E97869"/>
<g clip-path="url(#clip0_610_22)">
<path d="M21.6124 24.9897L21.597 22.7127C21.597 20.8802 23.7718 21.5455 23.4419 18.6943L22.8281 10.3933C22.8079 9.91614 22.2345 9.90727 22.2521 10.3846L22.1587 17.155C22.1113 17.8981 21.2299 17.7751 21.2579 16.9939L21.1446 10.3744C21.1446 9.83922 20.5876 9.94731 20.5824 10.4139L20.4304 17.2127C20.4127 17.7955 19.5507 17.7388 19.5687 17.1854L19.4396 10.3598C19.4396 9.94571 18.9087 9.90489 18.8976 10.3106L18.7424 17.2254C18.701 17.8581 17.8496 17.7729 17.8937 17.0897L17.7871 10.3859C17.794 9.87477 17.2698 9.90153 17.2456 10.3859L16.5508 19.141C16.5345 21.5323 18.3927 20.7766 18.4349 22.8202L18.4326 25C11.6513 23.952 7.7525 16.1704 11.392 9.9488C15.288 3.28872 24.9266 3.36645 28.6997 10.0883C32.1848 16.2971 28.2734 23.9119 21.6124 24.9897Z" fill="white"/>
</g>
<defs>
<clipPath id="clip0_610_22">
<rect width="20" height="20" fill="white" transform="translate(10 5)"/>
</clipPath>
</defs>
</svg>
