<svg width="59" height="52" viewBox="0 0 59 52" fill="none" xmlns="http://www.w3.org/2000/svg">
<g clip-path="url(#clip0_1054_735)">
<path d="M32.1074 33.5194C32.9359 33.5194 33.6074 32.8478 33.6074 32.0194C33.6074 31.191 32.9359 30.5194 32.1074 30.5194C31.279 30.5194 30.6074 31.191 30.6074 32.0194C30.6074 32.8478 31.279 33.5194 32.1074 33.5194Z" fill="white"/>
<path d="M42.5059 32.1824C43.3343 32.1824 44.0059 31.5108 44.0059 30.6824C44.0059 29.8539 43.3343 29.1824 42.5059 29.1824C41.6774 29.1824 41.0059 29.8539 41.0059 30.6824C41.0059 31.5108 41.6774 32.1824 42.5059 32.1824Z" fill="white"/>
<path d="M41.513 43.6854L39.8735 41.081C38.8551 39.4654 39.5492 37.2278 41.4582 35.9743C43.3672 34.7209 45.6552 35.0458 46.6736 36.6428L48.3132 39.2472L46.0297 40.7514L44.3902 38.147C44.2714 37.9613 43.6229 37.887 42.9562 38.3234C42.2894 38.7598 42.0839 39.3865 42.2026 39.5676L43.8422 42.1766L41.513 43.6854Z" fill="white"/>
<path d="M38.033 45.5748C34.5671 45.5353 31.1494 44.7439 28.0086 43.2536C27.6904 43.0884 27.4483 42.8034 27.3339 42.4593C27.2195 42.1153 27.2418 41.7394 27.396 41.4119C27.5503 41.0843 27.8243 40.8309 28.1597 40.7058C28.4951 40.5807 28.8653 40.5937 29.1914 40.742C29.7714 41.0206 42.9287 47.2414 48.3725 36.8377C48.4571 36.6762 48.5721 36.5331 48.711 36.4168C48.85 36.3004 49.0101 36.213 49.1823 36.1595C49.3545 36.1061 49.5353 36.0876 49.7145 36.1052C49.8937 36.1228 50.0677 36.1761 50.2267 36.2621C50.3856 36.348 50.5263 36.465 50.6408 36.6062C50.7553 36.7474 50.8412 36.9102 50.8938 37.0853C50.9464 37.2603 50.9646 37.4441 50.9473 37.6263C50.93 37.8084 50.8775 37.9853 50.793 38.1469C47.8153 43.7967 42.8282 45.5748 38.033 45.5748Z" fill="white"/>
<path d="M9.12534 22.3718L7.29857 19.461C6.09832 19.7632 4.83495 19.6738 3.68743 19.2056C2.53992 18.7373 1.56644 17.9139 0.904887 16.8519C0.0903654 15.5322 -0.190503 13.9433 0.121035 12.4178C0.432574 10.8924 1.31237 9.54845 2.57637 8.66731C2.75904 8.54197 2.94631 8.43055 3.13812 8.32377C3.05599 6.92877 3.34321 5.53688 3.96988 4.29302C4.59656 3.04916 5.53975 1.9988 6.70131 1.25128C7.86287 0.503754 9.20032 0.0864071 10.5744 0.0426792C11.9485 -0.00104872 13.309 0.330433 14.5143 1.00263C14.9618 0.706388 15.4454 0.470741 15.9529 0.301635C16.9637 -0.0395259 18.0476 -0.0900161 19.0848 0.155765C20.1221 0.401546 21.0723 0.934031 21.8305 1.69437C22.8921 2.73907 23.5323 4.14861 23.626 5.64756C23.7198 7.1465 23.2603 8.62712 22.3374 9.80007L25.1415 14.3172L23.3558 14.8139L22.9768 13.4815L21.8351 14.2104L18.7889 9.2894L19.7343 8.50947C20.0848 8.22052 20.3706 7.85882 20.5725 7.44856C20.7744 7.03829 20.8878 6.58892 20.9051 6.13052C20.9224 5.67211 20.8432 5.21524 20.6727 4.79046C20.5023 4.36568 20.2447 3.98279 19.917 3.66741C19.5162 3.26591 19.014 2.9849 18.466 2.85545C17.9179 2.72599 17.3453 2.75314 16.8115 2.93389C16.3389 3.08796 15.9066 3.34819 15.5464 3.69526L14.7107 4.51232L13.7973 3.80667C12.9882 3.19322 12.0142 2.84555 11.0055 2.81017C9.99679 2.77479 9.00149 3.05339 8.15278 3.60869C7.30407 4.164 6.64242 4.96953 6.25635 5.91752C5.87028 6.8655 5.77821 7.91073 5.99244 8.91336L6.2573 10.1854L5.03337 10.5429C4.61839 10.6732 4.23427 10.889 3.90488 11.1768C3.5755 11.4646 3.30792 11.8183 3.1188 12.2158C2.92967 12.6132 2.82305 13.046 2.80558 13.4872C2.7881 13.9284 2.86015 14.3685 3.01723 14.7801C3.1743 15.1918 3.41304 15.5661 3.7186 15.8799C4.02415 16.1937 4.38999 16.4402 4.79332 16.6041C5.19664 16.7679 5.62881 16.8457 6.06296 16.8324C6.49711 16.8191 6.92391 16.7152 7.31683 16.527L8.42204 15.9745L11.4316 20.8955L9.12534 22.3718Z" fill="white"/>
<path d="M11.9708 14C11.8012 13.9997 11.6346 13.9572 11.4876 13.8766C11.3406 13.796 11.2182 13.6801 11.1327 13.5406C11.0471 13.401 11.0014 13.2425 11 13.0809C10.9986 12.9193 11.0416 12.7601 11.1247 12.6192C11.5918 11.7711 12.3099 11.0723 13.1898 10.6094C14.0697 10.1465 15.0729 9.93989 16.0749 10.0151C16.2026 10.0212 16.3278 10.0512 16.4434 10.1034C16.5589 10.1556 16.6625 10.229 16.7483 10.3193C16.8341 10.4097 16.9004 10.5152 16.9434 10.63C16.9863 10.7448 17.0052 10.8665 16.9988 10.9882C16.9924 11.1099 16.9609 11.2292 16.9061 11.3393C16.8514 11.4494 16.7744 11.5481 16.6796 11.6299C16.5847 11.7116 16.4739 11.7748 16.3535 11.8157C16.2331 11.8567 16.1054 11.8746 15.9776 11.8685C15.3372 11.8122 14.6937 11.9405 14.1307 12.2368C13.5677 12.5332 13.1111 12.9838 12.8202 13.5305C12.7351 13.6735 12.6115 13.7924 12.4623 13.8749C12.313 13.9574 12.1434 14.0006 11.9708 14Z" fill="white"/>
<path d="M6.94631 52C5.3486 48.359 4.49261 44.4267 4.42993 40.4404C4.43337 36.4784 5.3158 32.5683 7.01151 29.001C8.70721 25.4338 11.1725 22.3012 14.224 19.8365C17.2755 17.3718 20.8345 15.6384 24.6361 14.7653C28.4378 13.8923 32.3842 13.9021 36.1816 14.794C39.979 15.6859 43.5297 17.4369 46.5692 19.9167C49.6088 22.3966 52.0591 25.5413 53.7376 29.117C55.4162 32.6926 56.2798 36.6071 56.2642 40.569C56.2487 44.5309 55.3542 48.4382 53.6476 52H53.6796H56.6481C58.2075 48.3528 59.0083 44.4172 59 40.4404C59.0479 36.5841 58.3421 32.7566 56.9236 29.1799C55.505 25.6031 53.4019 22.3482 50.7363 19.6041C48.0706 16.8599 44.8955 14.6812 41.3951 13.1941C37.8947 11.707 34.1387 10.9413 30.3449 10.9413C26.5511 10.9413 22.7951 11.707 19.2947 13.1941C15.7943 14.6812 12.6192 16.8599 9.95358 19.6041C7.28795 22.3482 5.18485 25.6031 3.76628 29.1799C2.34771 32.7566 1.64189 36.5841 1.68978 40.4404C1.74077 44.404 2.51504 48.3236 3.97324 52H6.94631Z" fill="white"/>
</g>
<defs>
<clipPath id="clip0_1054_735">
<rect width="59" height="52" fill="white"/>
</clipPath>
</defs>
</svg>
