<svg width="24" height="24" viewBox="0 0 24 24" fill="none" xmlns="http://www.w3.org/2000/svg">
<g clip-path="url(#clip0_975_377)">
<path d="M11.5455 21C11.4762 21.0001 11.4077 20.9843 11.3451 20.9536C11.2825 20.9229 11.2272 20.878 11.1834 20.8225C10.9262 20.5268 5 13.3801 5 9.77217C5.00252 7.97688 5.69295 6.25591 6.91991 4.98644C8.14688 3.71698 9.81026 3.00261 11.5455 3C13.2798 3.00261 14.9422 3.7173 16.1676 4.98705C17.3931 6.25679 18.0814 7.97779 18.0814 9.77217C18.0814 13.3801 12.1552 20.5268 11.898 20.8225C11.8552 20.8768 11.8015 20.9208 11.7406 20.9514C11.6797 20.982 11.6131 20.9986 11.5455 21ZM11.5455 3.98576C10.0622 3.98576 8.63966 4.59536 7.59082 5.68052C6.54199 6.76568 5.95276 8.23752 5.95276 9.77217C5.95276 12.2859 9.6971 17.4512 11.5455 19.7382C13.3843 17.4512 17.1286 12.2859 17.1286 9.77217C17.1286 8.23923 16.5407 6.76889 15.4939 5.68401C14.4472 4.59913 13.0271 3.98837 11.5455 3.98576Z" fill="#8C8C8C"/>
<path d="M11.5454 12.4927C10.7874 12.4927 10.0604 12.1811 9.52435 11.6265C8.98832 11.0719 8.68716 10.3197 8.68716 9.53541C8.68716 8.75109 8.98832 7.99887 9.52435 7.44428C10.0604 6.88968 10.7874 6.57812 11.5454 6.57812C12.3035 6.57812 13.0305 6.88968 13.5666 7.44428C14.1026 7.99887 14.4037 8.75109 14.4037 9.53541C14.4037 10.3197 14.1026 11.0719 13.5666 11.6265C13.0305 12.1811 12.3035 12.4927 11.5454 12.4927ZM11.5454 7.63284C11.0401 7.63284 10.5554 7.84058 10.198 8.21031C9.8407 8.58004 9.63992 9.08148 9.63992 9.60436C9.63992 10.1272 9.8407 10.6288 10.198 10.9985C10.5554 11.3683 11.0401 11.5759 11.5454 11.5759C12.0508 11.5759 12.5355 11.3683 12.8928 10.9985C13.2502 10.6288 13.451 10.1272 13.451 9.60436C13.451 9.08148 13.2502 8.58004 12.8928 8.21031C12.5355 7.84058 12.0508 7.63284 11.5454 7.63284Z" fill="#8C8C8C"/>
</g>
<defs>
<clipPath id="clip0_975_377">
<rect width="13.0909" height="18" fill="white" transform="translate(5 3)"/>
</clipPath>
</defs>
</svg>
