<svg width="24" height="24" viewBox="0 0 24 24" fill="none" xmlns="http://www.w3.org/2000/svg">
<path d="M7.95543 4.4257L9.05363 4.09235C9.55354 3.94036 10.0913 3.9769 10.5664 4.19515C11.0415 4.4134 11.4216 4.79844 11.6357 5.2784L12.3191 6.81046C12.5033 7.22319 12.5546 7.68366 12.4658 8.12726C12.3771 8.57086 12.1527 8.97533 11.8243 9.2839L10.6301 10.4059C10.6154 10.4198 10.6033 10.4363 10.5944 10.4546C10.4694 10.712 10.6592 11.3993 11.254 12.438C11.9248 13.6087 12.4428 14.0714 12.683 14.0001L14.2502 13.5167C14.6794 13.3847 15.1389 13.3912 15.5642 13.5355C15.9895 13.6798 16.3594 13.9547 16.6219 14.3214L17.5931 15.6768C17.898 16.1024 18.0393 16.6251 17.9906 17.1477C17.9419 17.6703 17.7066 18.1573 17.3285 18.5183L16.4929 19.315C16.2024 19.5923 15.8495 19.7947 15.4645 19.9049C15.0796 20.0151 14.6738 20.0298 14.282 19.9477C11.9553 19.4597 9.87066 17.5716 8.01034 14.3248C6.14936 11.076 5.56916 8.30919 6.31673 6.03377C6.44187 5.65282 6.65616 5.30783 6.9415 5.02793C7.22684 4.74804 7.57484 4.54148 7.95609 4.4257H7.95543ZM8.24255 5.38307C8.01379 5.45251 7.80497 5.57642 7.63375 5.74433C7.46252 5.91224 7.33392 6.11922 7.2588 6.34778C6.61444 8.30853 7.13641 10.7993 8.86971 13.8248C10.6017 16.8482 12.4792 18.5483 14.4838 18.9683C14.719 19.0176 14.9625 19.0088 15.1936 18.9426C15.4247 18.8764 15.6365 18.7549 15.8109 18.5883L16.6458 17.7923C16.8495 17.5979 16.9762 17.3357 17.0025 17.0543C17.0288 16.7729 16.9528 16.4914 16.7887 16.2622L15.8175 14.9061C15.6761 14.7087 15.477 14.5607 15.2481 14.483C15.0191 14.4053 14.7717 14.4017 14.5407 14.4728L12.9694 14.9575C12.1001 15.2181 11.2824 14.4881 10.3946 12.9374C9.64242 11.6253 9.38177 10.6773 9.70329 10.0153C9.76547 9.88726 9.85015 9.77192 9.95336 9.67458L11.1475 8.55254C11.3244 8.38638 11.4453 8.16857 11.4931 7.92966C11.5409 7.69076 11.5133 7.44276 11.4141 7.22048L10.7307 5.68908C10.6154 5.43058 10.4107 5.2232 10.1548 5.10566C9.89892 4.98813 9.60931 4.96848 9.34009 5.05039L8.24189 5.38374L8.24255 5.38307Z" fill="#8C8C8C"/>
</svg>
