<svg width="24" height="24" viewBox="0 0 24 24" fill="none" xmlns="http://www.w3.org/2000/svg">
<path fill-rule="evenodd" clip-rule="evenodd" d="M9.24479 10.7622L6.41636 13.5906C5.24479 14.7622 5.24479 16.6617 6.41636 17.8332C7.58794 19.0048 9.48743 19.0048 10.659 17.8332L13.4874 15.0048L12.7803 14.2977L9.9519 17.1261C9.17085 17.9072 7.90452 17.9072 7.12347 17.1261C6.34242 16.3451 6.34242 15.0787 7.12347 14.2977L9.9519 11.4693L9.24479 10.7622Z" fill="#8C8C8C"/>
<circle cx="9.59834" cy="11.1152" r="0.5" transform="rotate(-45 9.59834 11.1152)" fill="#8C8C8C"/>
<circle cx="13.1339" cy="14.6514" r="0.5" transform="rotate(-45 13.1339 14.6514)" fill="#8C8C8C"/>
<path fill-rule="evenodd" clip-rule="evenodd" d="M11.0126 8.99467L13.841 6.16624C15.0126 4.99467 16.9121 4.99467 18.0836 6.16624C19.2552 7.33781 19.2552 9.23731 18.0836 10.4089L15.2552 13.2373L14.5481 12.5302L17.3765 9.70178C18.1576 8.92073 18.1576 7.6544 17.3765 6.87335C16.5955 6.0923 15.3291 6.0923 14.5481 6.87335L11.7197 9.70178L11.0126 8.99467Z" fill="#8C8C8C"/>
<circle r="0.5" transform="matrix(-0.707107 0.707107 0.707107 0.707107 11.3661 9.34871)" fill="#8C8C8C"/>
<circle r="0.5" transform="matrix(-0.707107 0.707107 0.707107 0.707107 14.9016 12.8839)" fill="#8C8C8C"/>
<path d="M10.659 13.5908L13.841 10.4088" stroke="#8C8C8C" stroke-linecap="round" stroke-linejoin="round"/>
</svg>
