<svg width="113" height="38" viewBox="0 0 113 38" fill="none" xmlns="http://www.w3.org/2000/svg">
<rect width="113" height="38" rx="19" fill="#E97869"/>
<path d="M31.1265 16.288C31.1265 15.296 31.9745 14.656 33.1745 14.656C34.3905 14.656 35.2065 15.296 35.2065 16.288C35.2065 17.296 34.3905 17.936 33.1745 17.936C31.9745 17.936 31.1265 17.296 31.1265 16.288ZM37.6545 20.016C36.5025 20.192 35.2545 20.288 34.0225 20.368V19.12C35.6545 18.848 36.7425 17.76 36.7425 16.288C36.7425 14.576 35.2705 13.408 33.1745 13.408C31.0785 13.408 29.5905 14.576 29.5905 16.288C29.5905 17.776 30.7105 18.864 32.3745 19.12V20.432C31.0785 20.48 29.8465 20.48 28.8065 20.48L29.0145 21.824C31.4305 21.824 34.7905 21.776 37.7665 21.216L37.6545 20.016ZM32.4545 22.896H30.8065V26.944H40.6465V25.616H32.4545V22.896ZM40.1505 17.52V12.8H38.5025V23.84H40.1505V18.88H42.1345V17.52H40.1505ZM53.2372 21.296H54.8852V12.768H53.2372V15.664H50.3092V17.008H53.2372V21.296ZM51.4932 19.424C49.3012 18.704 48.1012 16.896 48.1012 14.896V13.552H46.4372V14.976C46.4372 17.088 45.1732 19.04 42.8532 19.824L43.7172 21.152C45.4612 20.528 46.6772 19.264 47.3172 17.664C47.9412 19.072 49.0612 20.16 50.6132 20.72L51.4932 19.424ZM50.0692 25.936C48.0212 25.936 46.8532 25.408 46.8532 24.464C46.8532 23.52 48.0212 22.992 50.0692 22.992C52.1172 22.992 53.3012 23.52 53.3012 24.464C53.3012 25.408 52.1172 25.936 50.0692 25.936ZM50.0692 21.696C47.0612 21.696 45.2052 22.72 45.2052 24.464C45.2052 26.208 47.0612 27.232 50.0692 27.232C53.0932 27.232 54.9492 26.208 54.9492 24.464C54.9492 22.72 53.0932 21.696 50.0692 21.696ZM61.204 22.768C60.036 22.768 59.188 21.968 59.188 20.752C59.188 19.536 60.036 18.736 61.204 18.736C62.372 18.736 63.22 19.536 63.22 20.752C63.22 21.968 62.372 22.768 61.204 22.768ZM61.204 17.376C59.124 17.376 57.62 18.784 57.62 20.752C57.62 22.736 59.124 24.128 61.204 24.128C63.268 24.128 64.788 22.736 64.788 20.752C64.788 18.784 63.268 17.376 61.204 17.376ZM62.004 12.992H60.356V15.008H56.916V16.352H65.38V15.008H62.004V12.992ZM70.436 18.592H68.212V12.784H66.548V27.248H68.212V19.968H70.436V18.592ZM71.8908 14.304V15.648H77.0428C76.7548 18.976 74.9628 21.52 71.1708 23.344L72.0508 24.656C77.0108 22.256 78.7388 18.608 78.7388 14.304H71.8908ZM81.3468 12.784V27.232H82.9948V12.784H81.3468Z" fill="white"/>
</svg>
