<svg width="113" height="38" viewBox="0 0 113 38" fill="none" xmlns="http://www.w3.org/2000/svg">
<rect width="113" height="38" rx="19" fill="#E97869"/>
<path d="M31.3985 15.224C31.3985 14.328 32.0865 13.816 33.0945 13.816C34.1025 13.816 34.8225 14.328 34.8225 15.224C34.8225 16.12 34.1025 16.632 33.0945 16.632C32.0865 16.632 31.3985 16.12 31.3985 15.224ZM37.5105 18.872C36.4545 19.032 35.3025 19.112 34.1665 19.176V18.12C35.7345 17.768 36.7745 16.664 36.7745 15.224C36.7745 13.464 35.2385 12.232 33.0945 12.232C30.9665 12.232 29.4305 13.464 29.4305 15.224C29.4305 16.68 30.4865 17.784 32.0545 18.12V19.256C30.8385 19.288 29.6705 19.288 28.6625 19.288L28.9185 20.968C31.3505 20.968 34.6625 20.92 37.6385 20.36L37.5105 18.872ZM32.6945 21.928H30.5825V26.12H40.8865V24.44H32.6945V21.928ZM40.3905 16.264V11.64H38.2785V22.888H40.3905V18.008H42.2465V16.264H40.3905ZM52.9972 20.28H55.1092V11.64H52.9972V14.328H50.3092V16.04H52.9972V20.28ZM51.6532 18.152C49.3172 17.4 48.3572 15.608 48.3572 13.624V12.408H46.2132V13.72C46.2132 15.752 45.1732 17.752 42.6612 18.552L43.7652 20.248C45.5092 19.656 46.6772 18.472 47.3332 16.968C47.9572 18.28 48.9972 19.288 50.5492 19.816L51.6532 18.152ZM50.1332 24.76C48.1972 24.76 47.1892 24.36 47.1892 23.528C47.1892 22.68 48.1972 22.28 50.1332 22.28C52.0532 22.28 53.0612 22.68 53.0612 23.528C53.0612 24.36 52.0532 24.76 50.1332 24.76ZM50.1332 20.648C46.9972 20.648 45.0772 21.704 45.0772 23.528C45.0772 25.32 46.9972 26.376 50.1332 26.376C53.2532 26.376 55.1732 25.32 55.1732 23.528C55.1732 21.704 53.2532 20.648 50.1332 20.648ZM61.124 21.64C60.132 21.64 59.396 20.968 59.396 19.848C59.396 18.728 60.132 18.04 61.124 18.04C62.116 18.04 62.836 18.728 62.836 19.832C62.836 20.968 62.116 21.64 61.124 21.64ZM61.124 16.328C58.98 16.328 57.38 17.784 57.38 19.832C57.38 21.912 58.98 23.368 61.124 23.368C63.252 23.368 64.836 21.912 64.836 19.832C64.836 17.784 63.252 16.328 61.124 16.328ZM62.164 11.896H60.052V13.816H56.788V15.496H65.364V13.816H62.164V11.896ZM70.548 17.4H68.436V11.64H66.324V26.376H68.436V19.144H70.548V17.4ZM71.7628 13.16V14.84H76.6748C76.3708 18.104 74.7388 20.408 70.9788 22.216L72.0828 23.88C77.3148 21.352 78.8348 17.672 78.8348 13.16H71.7628ZM81.0908 11.624V26.36H83.2188V11.624H81.0908Z" fill="white"/>
</svg>
