<svg width="13" height="18" viewBox="0 0 13 18" fill="none" xmlns="http://www.w3.org/2000/svg">
<path d="M6.50473 18C6.43587 18.0001 6.36786 17.9843 6.30563 17.9536C6.2434 17.9229 6.18851 17.878 6.14495 17.8225C5.8893 17.5268 0 10.3801 0 6.77217C0.00250457 4.97688 0.688635 3.25591 1.90797 1.98644C3.1273 0.716978 4.78034 0.00260755 6.50473 0C8.22825 0.00261192 9.88033 0.717298 11.0982 1.98705C12.316 3.25679 13 4.97779 13 6.77217C13 10.3801 7.11071 17.5268 6.85507 17.8225C6.81252 17.8768 6.75915 17.9208 6.69866 17.9514C6.63817 17.982 6.57199 17.9986 6.50473 18ZM6.50473 0.985761C5.03068 0.985761 3.61701 1.59536 2.57471 2.68052C1.5324 3.76568 0.946832 5.23752 0.946832 6.77217C0.946832 9.28587 4.66788 14.4512 6.50473 16.7382C8.33212 14.4512 12.0532 9.28587 12.0532 6.77217C12.0532 5.23923 11.4689 3.76889 10.4286 2.68401C9.38838 1.59913 7.97714 0.988373 6.50473 0.985761Z" fill="#E97869"/>
<path d="M6.5048 9.49269C5.75146 9.49269 5.02898 9.18114 4.49628 8.62654C3.96358 8.07194 3.66431 7.31973 3.66431 6.53541C3.66431 5.75109 3.96358 4.99887 4.49628 4.44428C5.02898 3.88968 5.75146 3.57812 6.5048 3.57812C7.25815 3.57812 7.98064 3.88968 8.51334 4.44428C9.04604 4.99887 9.3453 5.75109 9.3453 6.53541C9.3453 7.31973 9.04604 8.07194 8.51334 8.62654C7.98064 9.18114 7.25815 9.49269 6.5048 9.49269ZM6.5048 4.63284C6.00257 4.63284 5.52092 4.84058 5.16579 5.21031C4.81066 5.58004 4.61114 6.08148 4.61114 6.60436C4.61114 7.12724 4.81066 7.6288 5.16579 7.99853C5.52092 8.36826 6.00257 8.57588 6.5048 8.57588C7.00703 8.57588 7.4887 8.36826 7.84383 7.99853C8.19896 7.6288 8.39847 7.12724 8.39847 6.60436C8.39847 6.08148 8.19896 5.58004 7.84383 5.21031C7.4887 4.84058 7.00703 4.63284 6.5048 4.63284Z" fill="#E97869"/>
</svg>
