<svg width="94" height="94" viewBox="0 0 94 94" fill="none" xmlns="http://www.w3.org/2000/svg">
<circle cx="47" cy="47" r="46.5" stroke="#DEDEDE"/>
<path d="M44.3534 56.8192L43.406 43.4461V34H48.4135V43.4461L47.4211 56.8192H44.3534ZM45.9774 66C45.1053 66 44.3835 65.6816 43.812 65.0448C43.2707 64.408 43 63.6473 43 62.7629C43 61.8076 43.2707 61.0293 43.812 60.4279C44.3835 59.791 45.1053 59.4726 45.9774 59.4726C46.8797 59.4726 47.6015 59.791 48.1429 60.4279C48.7143 61.0293 49 61.8076 49 62.7629C49 63.6473 48.7143 64.408 48.1429 65.0448C47.6015 65.6816 46.8797 66 45.9774 66Z" fill="#E97869"/>
</svg>
