<svg width="94" height="94" viewBox="0 0 94 94" fill="none" xmlns="http://www.w3.org/2000/svg">
<circle cx="47" cy="47" r="46.5" stroke="#DEDEDE"/>
<path d="M45.3534 53.8192L44.406 40.4461V31H49.4135V40.4461L48.4211 53.8192H45.3534ZM46.9774 63C46.1053 63 45.3835 62.6816 44.812 62.0448C44.2707 61.408 44 60.6473 44 59.7628C44 58.8076 44.2707 58.0293 44.812 57.4279C45.3835 56.791 46.1053 56.4726 46.9774 56.4726C47.8797 56.4726 48.6015 56.791 49.1429 57.4279C49.7143 58.0293 50 58.8076 50 59.7628C50 60.6473 49.7143 61.408 49.1429 62.0448C48.6015 62.6816 47.8797 63 46.9774 63Z" fill="#E97869"/>
</svg>
