<svg width="112" height="80" viewBox="0 0 112 80" fill="none" xmlns="http://www.w3.org/2000/svg">
<circle cx="85" cy="50" r="2" fill="#F5F5F5" stroke="#E97869" stroke-width="2"/>
<circle cx="74.5" cy="47.5" r="2.5" fill="#F5F5F5" stroke="#E97869" stroke-width="2"/>
<path d="M73 16C73 14.8954 73.8954 14 75 14H82C83.1046 14 84 14.8954 84 16V26H73V16Z" stroke="#E97869" stroke-width="2"/>
<rect x="66" y="24" width="25" height="25" rx="2" fill="#FFDBD6" stroke="#E97869" stroke-width="2"/>
<path d="M71.5 22L61.5 15L60 26.5L56.5 46L66 50.5L76.5 53L78.5 40L76.5 31.5L71.5 22Z" fill="white"/>
<path d="M23.6487 54.0345C21.8008 49.9292 20.813 45.4839 20.7471 40.9765C20.7479 36.5465 21.7406 32.1738 23.651 28.1839C25.5615 24.194 28.3406 20.6899 31.7814 17.9323C35.2222 15.1747 39.2359 13.2348 43.5239 12.2571C47.8118 11.2793 52.2634 11.2889 56.5472 12.285C60.831 13.2812 64.8365 15.2383 68.2656 18.0106C71.6947 20.7829 74.459 24.2989 76.3526 28.297C78.2462 32.295 79.2203 36.672 79.2024 41.1019C79.1846 45.5319 78.1752 49.9007 76.2494 53.8831L74.1412 52.847C75.935 49.1516 76.8619 45.0902 76.8504 40.9765C76.8974 37.3897 76.237 33.8293 74.9073 30.5018C73.5777 27.1743 71.6054 24.1461 69.1049 21.5929C66.6044 19.0398 63.6255 17.0125 60.3411 15.6288C57.0568 14.2452 53.5324 13.5327 49.9725 13.5327C46.4127 13.5327 42.8883 14.2452 39.6039 15.6288C36.3196 17.0125 33.3407 19.0398 30.8402 21.5929C28.3397 24.1461 26.3673 27.1743 25.0377 30.5018C23.7081 33.8293 23.0476 37.3897 23.0947 40.9765C23.1605 45.1516 24.0796 49.2681 25.7944 53.0694L23.6487 54.0345Z" fill="#E97869"/>
<path d="M51.5995 33.6007C52.3489 33.6007 52.9564 32.9885 52.9564 32.2334C52.9564 31.4783 52.3489 30.8661 51.5995 30.8661C50.8501 30.8661 50.2426 31.4783 50.2426 32.2334C50.2426 32.9885 50.8501 33.6007 51.5995 33.6007Z" fill="#E97869"/>
<path d="M62.2905 32.2381C63.0399 32.2381 63.6474 31.626 63.6474 30.8708C63.6474 30.1157 63.0399 29.5035 62.2905 29.5035C61.5411 29.5035 60.9336 30.1157 60.9336 30.8708C60.9336 31.626 61.5411 32.2381 62.2905 32.2381Z" fill="#E97869"/>
<path d="M61 39L63 37.5H64.5L66 39.5L67 41.5L65 43L62.5 44L60 40.5L61 39Z" fill="#FFDBD6"/>
<path d="M61.3843 44.7142L59.5767 42.1405C58.5296 40.6549 59.1071 38.488 60.9054 37.2059C62.7037 35.9237 64.9245 36.0893 65.9669 37.5796L67.7792 40.1487L65.8636 41.5207L64.0512 38.9469C63.8164 38.611 62.9854 38.6252 62.2623 39.1362C61.5393 39.6472 61.2575 40.442 61.4923 40.7732L63.3 43.3469L61.3843 44.7142Z" fill="#E97869"/>
<path d="M58.0789 45.9348C54.4931 45.8549 50.9579 45.0656 47.6742 43.6118C47.4056 43.4696 47.202 43.2281 47.1062 42.938C47.0104 42.6479 47.0298 42.3316 47.1604 42.0556C47.291 41.7796 47.5225 41.5653 47.8066 41.4576C48.0906 41.3499 48.4049 41.3572 48.6837 41.478C51.2384 42.6103 53.9603 43.312 56.7407 43.555C62.314 43.9571 66.3331 41.8849 68.6995 37.4045C68.7664 37.2585 68.8621 37.1277 68.9809 37.0203C69.0996 36.9128 69.2389 36.8309 69.3902 36.7795C69.5414 36.7281 69.7014 36.7084 69.8605 36.7214C70.0196 36.7345 70.1744 36.7801 70.3153 36.8555C70.4563 36.9309 70.5806 37.0345 70.6805 37.1599C70.7804 37.2853 70.8539 37.4299 70.8965 37.5849C70.939 37.7399 70.9498 37.902 70.928 38.0614C70.9063 38.2207 70.8526 38.3739 70.7701 38.5116C67.6947 44.3404 62.6661 45.9348 58.0789 45.9348Z" fill="#E97869"/>
<path d="M28.3441 22.4399L26.3908 19.3268C25.0579 19.698 23.6374 19.5802 22.3826 18.9943C21.1278 18.4085 20.1203 17.3927 19.5395 16.128C18.9588 14.8633 18.8426 13.4319 19.2117 12.089C19.5808 10.746 20.4111 9.57873 21.5547 8.79522C21.7749 8.64329 22.0056 8.50732 22.245 8.38834C22.1339 6.98518 22.4049 5.57808 23.0287 4.31865C23.6526 3.05921 24.6057 1.99518 25.7854 1.2412C26.965 0.487219 28.3264 0.0718682 29.723 0.0398983C31.1196 0.00792842 32.4983 0.360551 33.7107 1.05977C34.1862 0.733504 34.7046 0.475546 35.2507 0.293327C36.2491 -0.0405213 37.3196 -0.0894966 38.3438 0.151824C39.3681 0.393145 40.3061 0.91535 41.054 1.66063C42.1287 2.70165 42.7681 4.11707 42.8414 5.61741C42.9148 7.11775 42.4165 8.58962 41.4485 9.73199L44.2656 14.2124L42.7302 14.6287L42.4062 13.5027L41.4297 14.1225L38.4106 9.30145L39.2229 8.63909C39.605 8.32655 39.9173 7.93607 40.139 7.4933C40.3607 7.05053 40.487 6.5655 40.5094 6.07007C40.5311 5.56497 40.4456 5.06102 40.2585 4.59189C40.0715 4.12276 39.7872 3.69925 39.4248 3.34966C38.9827 2.91004 38.4286 2.60222 37.8236 2.46027C37.2187 2.31832 36.5866 2.34777 35.9972 2.54536C35.4712 2.71195 34.9896 2.99666 34.5887 3.37804L33.8704 4.07352L33.0721 3.47267C32.2029 2.81993 31.1568 2.44984 30.0734 2.4118C28.9899 2.37375 27.9208 2.66956 27.0086 3.25975C26.0963 3.84993 25.3844 4.70642 24.9678 5.71492C24.5512 6.72341 24.4498 7.83594 24.6771 8.90404L24.9071 9.98274L23.8554 10.2855C23.335 10.4371 22.8567 10.7087 22.4585 11.0788C22.0603 11.4489 21.7532 11.9074 21.5614 12.4179C21.3696 12.9285 21.2984 13.477 21.3535 14.02C21.4086 14.5631 21.5884 15.0857 21.8787 15.5466C22.3366 16.2771 23.0461 16.8115 23.871 17.0473C24.696 17.2831 25.5783 17.2035 26.3486 16.824L27.2876 16.3509L30.3113 21.1767L28.3441 22.4399Z" fill="#E97869"/>
<path d="M30.4615 16.4076C30.2611 16.4057 30.0642 16.3537 29.8886 16.2562C29.7521 16.1819 29.6315 16.0811 29.5339 15.9596C29.4363 15.8381 29.3636 15.6983 29.3199 15.5483C29.2762 15.3982 29.2625 15.241 29.2796 15.0856C29.2966 14.9302 29.344 14.7797 29.4191 14.6429C30.076 13.3839 31.0849 12.3468 32.3208 11.6597C33.5568 10.9727 34.9656 10.666 36.3728 10.7775C36.6841 10.7932 36.9765 10.9329 37.1856 11.1658C37.3947 11.3987 37.5035 11.7058 37.4879 12.0195C37.4723 12.3332 37.3337 12.6278 37.1026 12.8385C36.8714 13.0492 36.5667 13.1588 36.2554 13.1431C35.2848 13.0572 34.3108 13.2647 33.4578 13.7392C32.6048 14.2136 31.9115 14.9334 31.4663 15.8068C31.3655 15.9866 31.2196 16.1367 31.0434 16.2421C30.8671 16.3475 30.6665 16.4046 30.4615 16.4076V16.4076Z" fill="#E97869"/>
<path d="M6.10398 57.268C6.74896 57.2599 7.38856 57.3872 7.98207 57.6417C8.55142 57.8837 9.06822 58.2357 9.50332 58.6779C9.94007 59.118 10.2891 59.6383 10.5316 60.2107C10.7842 60.8088 10.9106 61.4533 10.9025 62.1032V63.6929C10.9106 64.3428 10.7842 64.9873 10.5316 65.5853C10.2891 66.1578 9.94007 66.6781 9.50332 67.1182C9.06804 67.559 8.5512 67.9094 7.98207 68.1496C7.38856 68.4042 6.74896 68.5315 6.10398 68.5234H4.77525C4.13026 68.5315 3.49067 68.4042 2.89716 68.1496C1.74945 67.662 0.836226 66.7418 0.352322 65.5853C0.0997097 64.9873 -0.0265709 64.3428 -0.0185625 63.6929V62.1032C-0.0265709 61.4533 0.0997097 60.8088 0.352322 60.2107C0.83815 59.0545 1.75055 58.1334 2.89716 57.6417C3.49067 57.3872 4.13026 57.2599 4.77525 57.268H6.10398ZM9.80382 74.2528L5.33865 78.6386H0.920483L8.60657 70.9836H10.9964L18.6825 78.6386H14.2643L9.80382 74.2528ZM7.92573 62.2215C7.92926 61.9602 7.87975 61.701 7.78021 61.4598C7.68694 61.2301 7.54974 61.0211 7.37642 60.8447C7.1997 60.6686 6.99291 60.526 6.76602 60.4237C6.52791 60.3181 6.27022 60.2649 6.0101 60.2675H4.90673C4.64674 60.2663 4.38934 60.3194 4.1508 60.4237C3.92602 60.5272 3.721 60.6697 3.5451 60.8447C3.3701 61.0207 3.23128 61.2297 3.13662 61.4598C3.03938 61.7017 2.98991 61.9605 2.99104 62.2215V63.5367C2.99351 64.0479 3.19618 64.5375 3.5549 64.8989C3.91362 65.2604 4.39943 65.4646 4.90673 65.4671H6.0101C6.5174 65.4646 7.0032 65.2604 7.36192 64.8989C7.72064 64.5375 7.92326 64.0479 7.92573 63.5367V62.2215ZM18.1144 71.6838H14.9357V57.1544H18.1003L18.1144 71.6838Z" fill="#E97869"/>
<path d="M40.5199 75.3458V78.6576H21.1379V75.3458H40.5199ZM32.5662 59.1983H39.393V62.1979L34.0311 65.4198L39.393 68.8972V72.5307L31.0073 67.2602L22.2648 72.5307V68.8972L33.0638 62.1979H22.2648V59.1983H28.8381V56.3833H32.5568L32.5662 59.1983Z" fill="#E97869"/>
<path d="M43.1116 57.268H51.9903V64.6959H53.9059V57.1544H57.0376V78.6386H53.9059V67.7144H51.9903V78.5251H43.1116V57.268ZM46.2433 75.3883H48.8585V60.4047H46.2433V75.3883ZM61.7939 78.6386H58.6387V57.1544H61.7939V78.6386Z" fill="#E97869"/>
<path d="M89.5756 79.1118H86.1058V57.6276H89.5756V79.1118Z" fill="#E97869"/>
<path d="M112.005 75.6627V78.6386H92.6228V75.6627H112.005ZM110.967 57.2679V60.3337H97.196V62.9453H110.967V66.0111H97.196V68.4429H110.967V71.5087H93.6933V57.2679H110.967Z" fill="#E97869"/>
<path d="M73.5038 79.7268C71.391 79.7268 69.1654 76.5569 67.6723 73.898C66.1792 71.2391 64.6111 67.5346 64.6111 64.9608C64.6111 62.5843 65.548 60.305 67.2157 58.6246C68.8834 56.9441 71.1453 56 73.5038 56C75.8623 56 78.1242 56.9441 79.7919 58.6246C81.4597 60.305 82.3966 62.5843 82.3966 64.9608C82.3966 67.5346 80.819 71.2674 79.3353 73.898C77.8516 76.5285 75.6167 79.7268 73.5038 79.7268ZM73.5038 58.8387C71.8947 58.8462 70.3537 59.4936 69.2159 60.6401C68.0781 61.7866 67.4356 63.3394 67.4282 64.9608C67.4282 68.5045 71.8511 76.1405 73.5038 76.8644C75.1565 76.1405 79.5794 68.5045 79.5794 64.9608C79.572 63.3394 78.9296 61.7866 77.7918 60.6401C76.654 59.4936 75.1129 58.8462 73.5038 58.8387V58.8387Z" fill="#E97869"/>
<path d="M73.6071 67.828C75.2926 67.828 76.659 66.4512 76.659 64.7527C76.659 63.0543 75.2926 61.6775 73.6071 61.6775C71.9216 61.6775 70.5552 63.0543 70.5552 64.7527C70.5552 66.4512 71.9216 67.828 73.6071 67.828Z" fill="#E97869"/>
</svg>
