<svg width="117" height="79" viewBox="0 0 117 79" fill="none" xmlns="http://www.w3.org/2000/svg">
<g clip-path="url(#clip0_628_164)">
<path d="M58.1074 33.5194C58.9359 33.5194 59.6074 32.8478 59.6074 32.0194C59.6074 31.191 58.9359 30.5194 58.1074 30.5194C57.279 30.5194 56.6074 31.191 56.6074 32.0194C56.6074 32.8478 57.279 33.5194 58.1074 33.5194Z" fill="#E97869"/>
<path d="M68.5063 32.1824C69.3348 32.1824 70.0063 31.5108 70.0063 30.6824C70.0063 29.8539 69.3348 29.1824 68.5063 29.1824C67.6779 29.1824 67.0063 29.8539 67.0063 30.6824C67.0063 31.5108 67.6779 32.1824 68.5063 32.1824Z" fill="#E97869"/>
<path d="M67.5135 43.6854L65.874 41.081C64.8556 39.4654 65.5497 37.2278 67.4587 35.9743C69.3677 34.7209 71.6557 35.0458 72.6741 36.6428L74.3136 39.2472L72.0302 40.7514L70.3907 38.147C70.2719 37.9613 69.6234 37.887 68.9567 38.3234C68.2899 38.7598 68.0844 39.3865 68.2031 39.5676L69.8426 42.1766L67.5135 43.6854Z" fill="#E97869"/>
<path d="M64.0335 45.5748C60.5676 45.5353 57.1499 44.7439 54.0091 43.2536C53.6909 43.0884 53.4488 42.8034 53.3344 42.4593C53.22 42.1153 53.2422 41.7394 53.3965 41.4119C53.5508 41.0843 53.8248 40.8309 54.1602 40.7058C54.4956 40.5807 54.8658 40.5937 55.1919 40.742C55.7719 41.0206 68.9292 47.2414 74.373 36.8377C74.4575 36.6762 74.5726 36.5331 74.7115 36.4168C74.8505 36.3004 75.0106 36.213 75.1828 36.1595C75.355 36.1061 75.5358 36.0876 75.715 36.1052C75.8942 36.1228 76.0682 36.1761 76.2271 36.2621C76.3861 36.348 76.5268 36.465 76.6413 36.6062C76.7557 36.7474 76.8417 36.9102 76.8943 37.0853C76.9469 37.2603 76.9651 37.4441 76.9478 37.6263C76.9304 37.8084 76.878 37.9853 76.7934 38.1469C73.8158 43.7967 68.8287 45.5748 64.0335 45.5748Z" fill="#E97869"/>
<path d="M35.1248 22.3718L33.2981 19.461C32.0978 19.7632 30.8345 19.6738 29.6869 19.2056C28.5394 18.7373 27.5659 17.9139 26.9044 16.8519C26.0899 15.5322 25.809 13.9433 26.1205 12.4178C26.4321 10.8924 27.3119 9.54845 28.5759 8.66731C28.7586 8.54197 28.9458 8.43055 29.1376 8.32377C29.0555 6.92877 29.3427 5.53688 29.9694 4.29302C30.5961 3.04916 31.5393 1.9988 32.7008 1.25128C33.8624 0.503754 35.1998 0.0864071 36.5739 0.0426792C37.948 -0.00104872 39.3085 0.330433 40.5138 1.00263C40.9613 0.706388 41.4449 0.470741 41.9524 0.301635C42.9632 -0.0395259 44.0471 -0.0900161 45.0843 0.155765C46.1216 0.401546 47.0718 0.934031 47.83 1.69437C48.8916 2.73907 49.5318 4.14861 49.6255 5.64756C49.7193 7.1465 49.2598 8.62712 48.3369 9.80007L51.141 14.3172L49.3554 14.8139L48.9763 13.4815L47.8346 14.2104L44.7884 9.2894L45.7338 8.50947C46.0843 8.22052 46.3701 7.85882 46.572 7.44856C46.7739 7.03829 46.8873 6.58892 46.9046 6.13052C46.9219 5.67211 46.8427 5.21524 46.6723 4.79046C46.5019 4.36568 46.2442 3.98279 45.9165 3.66741C45.5157 3.26591 45.0136 2.9849 44.4655 2.85545C43.9174 2.72599 43.3448 2.75314 42.811 2.93389C42.3384 3.08796 41.9061 3.34819 41.5459 3.69526L40.7102 4.51232L39.7968 3.80667C38.9878 3.19322 38.0137 2.84555 37.005 2.81017C35.9963 2.77479 35.001 3.05339 34.1523 3.6087C33.3036 4.164 32.6419 4.96953 32.2559 5.91752C31.8698 6.8655 31.7777 7.91073 31.992 8.91336L32.2568 10.1854L31.0329 10.5429C30.6179 10.6732 30.2338 10.889 29.9044 11.1768C29.575 11.4646 29.3074 11.8183 29.1183 12.2158C28.9292 12.6132 28.8226 13.046 28.8051 13.4872C28.7876 13.9284 28.8597 14.3685 29.0167 14.7801C29.1738 15.1918 29.4126 15.5661 29.7181 15.8799C30.0237 16.1937 30.3895 16.4402 30.7928 16.6041C31.1962 16.7679 31.6283 16.8457 32.0625 16.8324C32.4966 16.8191 32.9234 16.7152 33.3163 16.527L34.4216 15.9745L37.4311 20.8955L35.1248 22.3718Z" fill="#E97869"/>
<path d="M37.9708 14C37.8012 13.9997 37.6346 13.9572 37.4876 13.8766C37.3406 13.796 37.2182 13.6801 37.1327 13.5406C37.0471 13.401 37.0014 13.2425 37 13.0809C36.9986 12.9193 37.0416 12.7601 37.1247 12.6192C37.5918 11.7711 38.3099 11.0723 39.1898 10.6094C40.0697 10.1465 41.0729 9.93989 42.0749 10.0151C42.2026 10.0212 42.3278 10.0512 42.4434 10.1034C42.5589 10.1556 42.6625 10.229 42.7483 10.3193C42.8341 10.4097 42.9004 10.5152 42.9434 10.63C42.9863 10.7448 43.0052 10.8665 42.9988 10.9882C42.9924 11.1099 42.9609 11.2292 42.9061 11.3393C42.8514 11.4494 42.7744 11.5481 42.6796 11.6299C42.5847 11.7116 42.4739 11.7748 42.3535 11.8157C42.2331 11.8567 42.1054 11.8746 41.9776 11.8685C41.3372 11.8122 40.6937 11.9405 40.1307 12.2368C39.5677 12.5332 39.1111 12.9838 38.8202 13.5305C38.7351 13.6735 38.6115 13.7924 38.4623 13.8749C38.313 13.9574 38.1434 14.0006 37.9708 14Z" fill="#E97869"/>
<path d="M32.9463 52C31.3486 48.359 30.4926 44.4267 30.4299 40.4404C30.4334 36.4784 31.3158 32.5683 33.0115 29.001C34.7072 25.4338 37.1725 22.3012 40.224 19.8365C43.2755 17.3718 46.8345 15.6384 50.6361 14.7653C54.4378 13.8923 58.3842 13.9021 62.1816 14.794C65.979 15.6859 69.5297 17.4369 72.5692 19.9167C75.6088 22.3966 78.0591 25.5413 79.7376 29.117C81.4162 32.6926 82.2798 36.6071 82.2642 40.569C82.2487 44.5309 81.3542 48.4381 79.6476 52H79.6796H82.6481C84.2075 48.3528 85.0083 44.4172 85 40.4404C85.0479 36.5841 84.3421 32.7566 82.9236 29.1799C81.505 25.6031 79.4019 22.3482 76.7363 19.6041C74.0706 16.8599 70.8955 14.6812 67.3951 13.1941C63.8947 11.707 60.1387 10.9413 56.3449 10.9413C52.5511 10.9413 48.7951 11.707 45.2947 13.1941C41.7943 14.6812 38.6192 16.8599 35.9536 19.6041C33.288 22.3482 31.1848 25.6031 29.7663 29.1799C28.3477 32.7566 27.6419 36.5841 27.6898 40.4404C27.7408 44.404 28.515 48.3236 29.9732 52H32.9463Z" fill="#E97869"/>
</g>
<path d="M22.272 55.816H18.888V71.176H22.272V55.816ZM18.192 78.52H22.896L14.712 70.432H12.168L3.984 78.52H8.688L13.44 73.888L18.192 78.52ZM8.088 55.936C5.28 55.936 3 58.216 3 61.024V62.704C3 65.512 5.28 67.792 8.088 67.792H9.504C12.312 67.792 14.592 65.512 14.592 62.704V61.024C14.592 58.216 12.312 55.936 9.504 55.936H8.088ZM11.424 62.56C11.424 63.688 10.512 64.6 9.384 64.6H8.208C7.08 64.6 6.168 63.688 6.168 62.56V61.168C6.168 60.04 7.08 59.104 8.208 59.104H9.384C10.512 59.104 11.424 60.04 11.424 61.168V62.56Z" fill="#E97869"/>
<path d="M37.6791 55H33.7191V57.976H26.7111V61.144H38.2311L26.7111 68.224V72.064L36.0231 66.496L44.9511 72.064V68.224L39.2391 64.552L44.9511 61.144V57.976H37.6791V55ZM25.5111 75.04V78.52H46.1511V75.04H25.5111Z" fill="#E97869"/>
<path d="M48.9101 78.4H58.3661V66.976H60.4061V78.52H63.7421V55.816H60.4061V63.784H58.3661V55.936H48.9101V78.4ZM68.8061 55.816H65.4461V78.52H68.8061V55.816ZM52.2461 59.248H55.0301V75.088H52.2461V59.248Z" fill="#E97869"/>
<path d="M79.2212 59.224C80.5172 59.224 81.5492 60.376 81.5492 61.648V72.688C81.5492 73.984 80.5172 75.112 79.1732 75.112H78.0932C76.7252 75.112 75.5972 74.032 75.5972 72.688V61.648C75.5972 60.304 76.7252 59.224 78.0932 59.224H79.2212ZM78.0932 55.816C74.8292 55.816 72.1892 58.408 72.1892 61.648V72.688C72.1892 75.928 74.8292 78.52 78.0932 78.52H79.2692C82.4372 78.52 84.9572 75.832 84.9572 72.688V61.648C84.9572 58.528 82.4852 55.816 79.3652 55.816H78.0932ZM91.3892 55.816H87.6932V78.52H91.3892V55.816Z" fill="#E97869"/>
<path d="M94.6283 75.376V78.52H115.268V75.376H94.6283ZM95.7803 55.936V70.984H114.164V67.744H99.5003V65.176H114.164V61.936H99.5003V59.176H114.164V55.936H95.7803Z" fill="#E97869"/>
<defs>
<clipPath id="clip0_628_164">
<rect width="59" height="52" fill="white" transform="translate(26)"/>
</clipPath>
</defs>
</svg>
