<svg width="40" height="40" viewBox="0 0 40 40" fill="none" xmlns="http://www.w3.org/2000/svg">
<path d="M35 15C35 23.2843 20.2843 40 20 40C19.7157 40 5 23.2843 5 15C5 6.71573 11.7157 0 20 0C28.2843 0 35 6.71573 35 15Z" fill="#4B45E7"/>
<circle cx="20" cy="15" r="10" fill="white"/>
<path d="M15.6002 14L14.0002 12L15.6002 10H22.0002V11.6" stroke="#4B45E7"/>
<rect x="21.5002" y="8" width="1" height="3" fill="#4B45E7"/>
<rect x="17.0002" y="17" width="1" height="3" fill="#4B45E7"/>
<path d="M18.0002 12.5H17.5002V13V17V17.5H18.0002H24.4002H24.6406L24.7907 17.3123L26.3907 15.3123L26.6406 15L26.3907 14.6877L24.7907 12.6877L24.6406 12.5H24.4002H18.0002Z" fill="#4B45E7" stroke="#4B45E7"/>
</svg>
