<svg width="48" height="48" viewBox="0 0 48 48" fill="none" xmlns="http://www.w3.org/2000/svg">
<circle cx="24" cy="24" r="24" fill="#FFDC5F"/>
<path d="M18.866 16.11C19.458 16.11 19.874 16.254 20.114 16.542C20.354 16.83 20.474 17.174 20.474 17.574C20.474 17.99 20.354 18.342 20.114 18.63C19.874 18.934 19.458 19.086 18.866 19.086C18.29 19.086 17.874 18.934 17.618 18.63C17.362 18.342 17.234 17.99 17.234 17.574C17.234 17.174 17.362 16.83 17.618 16.542C17.874 16.254 18.29 16.11 18.866 16.11ZM29.138 16.11C29.746 16.11 30.17 16.254 30.41 16.542C30.65 16.83 30.77 17.174 30.77 17.574C30.77 17.99 30.65 18.342 30.41 18.63C30.17 18.934 29.746 19.086 29.138 19.086C28.562 19.086 28.146 18.934 27.89 18.63C27.634 18.342 27.506 17.99 27.506 17.574C27.506 17.174 27.634 16.83 27.89 16.542C28.146 16.254 28.562 16.11 29.138 16.11Z" fill="black"/>
<path d="M23.066 26.0782L24.938 26.0782L24.938 31.8862L23.066 31.8862L23.066 26.0782Z" fill="black"/>
</svg>
