<svg width="48" height="48" viewBox="0 0 48 48" fill="none" xmlns="http://www.w3.org/2000/svg">
<circle cx="24" cy="24" r="24" fill="#FFDC5F"/>
<path d="M18.62 16.25C19.212 16.25 19.628 16.394 19.868 16.682C20.108 16.97 20.228 17.314 20.228 17.714C20.228 18.13 20.108 18.482 19.868 18.77C19.628 19.074 19.212 19.226 18.62 19.226C18.044 19.226 17.628 19.074 17.372 18.77C17.116 18.482 16.988 18.13 16.988 17.714C16.988 17.314 17.116 16.97 17.372 16.682C17.628 16.394 18.044 16.25 18.62 16.25ZM28.892 16.25C29.5 16.25 29.924 16.394 30.164 16.682C30.404 16.97 30.524 17.314 30.524 17.714C30.524 18.13 30.404 18.482 30.164 18.77C29.924 19.074 29.5 19.226 28.892 19.226C28.316 19.226 27.9 19.074 27.644 18.77C27.388 18.482 27.26 18.13 27.26 17.714C27.26 17.314 27.388 16.97 27.644 16.682C27.9 16.394 28.316 16.25 28.892 16.25Z" fill="black"/>
<path d="M23.9 26.2182C25.212 26.2182 26.492 26.3382 27.74 26.5782C28.988 26.8342 30.18 27.2262 31.316 27.7542C32.452 28.2822 33.5 28.9462 34.46 29.7463L34.46 31.7382C33.468 31.0022 32.396 30.3782 31.244 29.8662C30.092 29.3702 28.9 28.9943 27.668 28.7383C26.436 28.4822 25.188 28.3542 23.924 28.3542C22.692 28.3542 21.468 28.4822 20.252 28.7383C19.036 28.9943 17.868 29.3702 16.748 29.8662C15.612 30.3622 14.54 30.9782 13.532 31.7142L13.532 29.7462C14.476 28.9462 15.508 28.2822 16.628 27.7542C17.732 27.2262 18.9 26.8342 20.132 26.5782C21.364 26.3382 22.62 26.2182 23.9 26.2182Z" fill="black"/>
</svg>
