<svg width="48" height="48" viewBox="0 0 48 48" fill="none" xmlns="http://www.w3.org/2000/svg">
<circle cx="24" cy="24" r="24" fill="#FFDC5F"/>
<path d="M18.8252 16.38C19.4172 16.38 19.8332 16.524 20.0732 16.812C20.3132 17.1 20.4332 17.444 20.4332 17.844C20.4332 18.26 20.3132 18.612 20.0732 18.9C19.8332 19.204 19.4172 19.356 18.8252 19.356C18.2492 19.356 17.8332 19.204 17.5772 18.9C17.3212 18.612 17.1932 18.26 17.1932 17.844C17.1932 17.444 17.3212 17.1 17.5772 16.812C17.8332 16.524 18.2492 16.38 18.8252 16.38ZM29.0972 16.38C29.7052 16.38 30.1292 16.524 30.3692 16.812C30.6092 17.1 30.7292 17.444 30.7292 17.844C30.7292 18.26 30.6092 18.612 30.3692 18.9C30.1292 19.204 29.7052 19.356 29.0972 19.356C28.5212 19.356 28.1052 19.204 27.8492 18.9C27.5932 18.612 27.4652 18.26 27.4652 17.844C27.4652 17.444 27.5932 17.1 27.8492 16.812C28.1052 16.524 28.5212 16.38 29.0972 16.38Z" fill="black"/>
<path d="M23.9 31.6283C22.62 31.6283 21.364 31.5003 20.132 31.2443C18.9 31.0043 17.732 30.6203 16.628 30.0923C15.508 29.5803 14.476 28.9163 13.532 28.1003L13.532 26.1323C14.54 26.8683 15.612 27.4843 16.748 27.9803C17.868 28.4763 19.036 28.8523 20.252 29.1083C21.468 29.3643 22.692 29.4923 23.924 29.4923C25.188 29.4923 26.436 29.3643 27.668 29.1083C28.9 28.8523 30.092 28.4763 31.244 27.9803C32.396 27.4843 33.468 26.8603 34.46 26.1083L34.46 28.1003C33.5 28.9163 32.452 29.5803 31.316 30.0923C30.18 30.6203 28.988 31.0043 27.74 31.2443C26.492 31.5003 25.212 31.6283 23.9 31.6283Z" fill="black"/>
</svg>
