<svg width="24" height="24" viewBox="0 0 24 24" fill="none" xmlns="http://www.w3.org/2000/svg">
<g clip-path="url(#clip0_925_438)">
<path d="M11.639 19.9997C10.3259 19.9997 9.04235 19.6103 7.95058 18.8808C6.8588 18.1513 6.00786 17.1144 5.50537 15.9013C5.00288 14.6882 4.8714 13.3533 5.12757 12.0655C5.38374 10.7776 6.01604 9.59467 6.94453 8.66619C7.87301 7.73771 9.05596 7.10542 10.3438 6.84925C11.6316 6.59308 12.9665 6.72455 14.1796 7.22704C15.3928 7.72953 16.4296 8.58047 17.1591 9.67225C17.8886 10.764 18.278 12.0476 18.278 13.3607C18.278 15.1215 17.5786 16.8101 16.3335 18.0552C15.0884 19.3002 13.3998 19.9997 11.639 19.9997ZM11.639 7.82818C10.5448 7.82818 9.47512 8.15265 8.56531 8.76057C7.65549 9.36849 6.94638 10.2325 6.52764 11.2435C6.1089 12.2544 5.99934 13.3668 6.21281 14.44C6.42629 15.5132 6.9532 16.499 7.72693 17.2728C8.50067 18.0465 9.48647 18.5734 10.5597 18.7869C11.6329 19.0004 12.7453 18.8908 13.7562 18.472C14.7671 18.0533 15.6312 17.3442 16.2391 16.4344C16.847 15.5246 17.1715 14.4549 17.1715 13.3607C17.1715 11.8934 16.5886 10.4862 15.5511 9.44861C14.5135 8.41106 13.1063 7.82818 11.639 7.82818Z" fill="#8C8C8C"/>
<path d="M12.1922 4.50879H11.0857V7.27504H12.1922V4.50879Z" fill="#8C8C8C"/>
<path d="M14.9585 4H8.28625V5.1065H14.9585V4Z" fill="#8C8C8C"/>
<path d="M14.9585 14.467H11.0747V10.041H12.1812V13.3605H14.9585V14.467Z" fill="#8C8C8C"/>
</g>
<defs>
<clipPath id="clip0_925_438">
<rect width="13.278" height="16" fill="white" transform="translate(5 4)"/>
</clipPath>
</defs>
</svg>
