<svg width="125" height="21" viewBox="0 0 125 21" fill="none" xmlns="http://www.w3.org/2000/svg">
<g clip-path="url(#clip0_1246_379)">
<path d="M3.82245 8.2907L6.88884 6.59808C7.05071 6.51015 7.2314 6.45868 7.41718 6.44757C7.60296 6.43646 7.78895 6.46601 7.961 6.53397L5.30739 5.02344L1.60038 7.0751C1.41054 7.18229 1.25342 7.33527 1.14471 7.51876L3.32121 8.80105C3.43058 8.5864 3.60533 8.40848 3.82245 8.2907V8.2907Z" fill="#9F8AC7"/>
<path d="M13.3969 7.07025L8.11916 4.1569C7.93362 4.0535 7.72275 3.99902 7.50803 3.99902C7.29331 3.99902 7.08243 4.0535 6.89689 4.1569L5.32617 5.02373L7.97978 6.53425C8.02749 6.55304 8.07403 6.57445 8.11916 6.59837L11.1856 8.29099C11.3497 8.3841 11.4891 8.51224 11.593 8.66541L13.7882 7.42159C13.6859 7.27879 13.5524 7.15892 13.3969 7.07025V7.07025Z" fill="#4561B3"/>
<path d="M11.7886 9.13965C11.7972 9.19484 11.8017 9.25055 11.802 9.30634C11.8017 9.25055 11.7972 9.19484 11.7886 9.13965V9.13965Z" fill="white"/>
<path d="M11.6734 8.81348C11.6954 8.86014 11.7142 8.90811 11.7297 8.95709C11.7142 8.90811 11.6954 8.86014 11.6734 8.81348V8.81348Z" fill="white"/>
<path d="M11.7377 8.97266C11.7513 9.01818 11.762 9.06442 11.7699 9.11115C11.762 9.06442 11.7513 9.01818 11.7377 8.97266V8.97266Z" fill="white"/>
<path d="M11.6707 8.80865C11.6464 8.75858 11.6177 8.71054 11.585 8.66504V8.66504C11.6171 8.71088 11.6458 8.75887 11.6707 8.80865V8.80865Z" fill="white"/>
<path d="M14 8.08513C13.9995 7.84742 13.9228 7.61558 13.7802 7.4209L11.585 8.66472C11.6171 8.71056 11.6458 8.75855 11.6707 8.80833V8.80833C11.6927 8.85499 11.7115 8.90297 11.727 8.95195V8.96734C11.7406 9.01285 11.7513 9.0591 11.7592 9.10582C11.7592 9.10582 11.7592 9.12378 11.7592 9.13404C11.7678 9.18923 11.7722 9.24494 11.7726 9.30073V12.686C11.7726 12.9014 11.4429 13.363 11.3303 13.54L13.9839 11.9499L14 8.08513Z" fill="#374E8E"/>
<path d="M11.3464 13.5456C11.2526 13.82 11.5206 13.3071 11.1775 13.7072L8.11113 15.3998C7.92506 15.5018 7.71445 15.5557 7.5 15.5562V17.9977C7.71461 17.9984 7.92555 17.9444 8.11113 17.8413L13.3969 14.9279C13.5842 14.8236 13.7393 14.6737 13.8466 14.4936C13.9539 14.3135 14.0096 14.1094 14.008 13.9021V11.9453L11.3464 13.5456Z" fill="#9BC049"/>
<path d="M3.21137 12.691V9.30581C3.21156 9.13253 3.2528 8.96156 3.33199 8.80572L1.1555 7.52344C1.05381 7.69836 1.00031 7.89517 1.00003 8.09533V13.922C0.998448 14.1294 1.05413 14.3334 1.16144 14.5136C1.26876 14.6937 1.4239 14.8435 1.61117 14.9479L3.23818 15.8455V12.9219C3.22103 12.846 3.21204 12.7687 3.21137 12.691V12.691Z" fill="#8F7CB3"/>
<path d="M6.88888 15.3993L3.82249 13.7066C3.67307 13.6223 3.54384 13.5088 3.44318 13.3736C3.34252 13.2385 3.27267 13.0845 3.23816 12.9219V15.825L6.88888 17.8407C7.07447 17.9438 7.2854 17.9978 7.50002 17.9972V15.5557C7.28557 15.5552 7.07495 15.5013 6.88888 15.3993V15.3993Z" fill="#ACD951"/>
</g>
<path d="M23.1413 16.579H25.4936V6.94578H28.8313V5.02539H19.8354V6.94578H23.1413V16.579Z" fill="#414141"/>
<path d="M32.3118 16.7975C34.5369 16.7975 36.5872 15.1113 36.5872 12.223C36.5872 9.30333 34.5369 7.61714 32.3118 7.61714C30.0867 7.61714 28.0364 9.30333 28.0364 12.223C28.0364 15.1113 30.0867 16.7975 32.3118 16.7975ZM32.3118 14.924C31.1039 14.924 30.4205 13.8623 30.4205 12.223C30.4205 10.568 31.1039 9.49069 32.3118 9.49069C33.5198 9.49069 34.2032 10.568 34.2032 12.223C34.2032 13.8623 33.5198 14.924 32.3118 14.924Z" fill="#414141"/>
<path d="M40.5444 16.7975C41.7682 16.7975 42.6264 16.2199 43.3893 15.3299H43.4529L43.6277 16.579H45.535V7.83572H43.1986V13.7374C42.5947 14.5181 42.1178 14.8303 41.3867 14.8303C40.5285 14.8303 40.147 14.3619 40.147 13.0036V7.83572H37.8107V13.3002C37.8107 15.4861 38.6371 16.7975 40.5444 16.7975Z" fill="#414141"/>
<path d="M47.3901 16.579H49.7105V11.3642C50.2191 10.0996 51.0615 9.64682 51.7608 9.64682C52.1264 9.64682 52.3807 9.69366 52.6827 9.78733L53.0959 7.80449C52.8257 7.6952 52.5396 7.61714 52.0469 7.61714C51.1251 7.61714 50.1715 8.24165 49.5198 9.3814H49.4562L49.2973 7.83572H47.3901V16.579Z" fill="#414141"/>
<path d="M59.0418 11.817L59.3915 10.5524C59.7412 9.35017 60.0908 8.03869 60.3928 6.77404H60.4564C60.806 8.02307 61.1239 9.35017 61.4895 10.5524L61.8391 11.817H59.0418ZM63.1742 16.579H65.6377L61.855 5.02539H59.0895L55.3227 16.579H57.7068L58.5333 13.6125H62.3477L63.1742 16.579Z" fill="#414141"/>
<path d="M66.3788 16.579H68.731V12.4728H70.3045C72.8316 12.4728 74.8501 11.2862 74.8501 8.64759C74.8501 5.91533 72.8475 5.02539 70.2409 5.02539H66.3788V16.579ZM68.731 10.646V6.8521H70.0661C71.6872 6.8521 72.5455 7.30488 72.5455 8.64759C72.5455 9.97469 71.7667 10.646 70.1455 10.646H68.731Z" fill="#414141"/>
<path d="M76.3439 16.579H78.6962V5.02539H76.3439V16.579Z" fill="#414141"/>
<path d="M85.347 10.9115C86.451 10.9115 87.3828 10.306 87.3828 9.26367C87.3828 8.52025 86.8817 8.04507 86.224 7.86879V7.83047C86.8425 7.59288 87.1949 7.14836 87.1949 6.53523C87.1949 5.56188 86.4354 5.02539 85.3156 5.02539C84.6344 5.02539 84.0784 5.29364 83.5773 5.72283L84.1646 6.4126C84.5091 6.10604 84.8458 5.91443 85.2608 5.90677C85.7541 5.91443 86.036 6.17501 86.036 6.61954C86.036 7.12537 85.6915 7.48559 84.6266 7.48559V8.29799C85.8872 8.29799 86.224 8.64287 86.224 9.20236C86.224 9.70819 85.8246 9.99177 85.2373 9.99177C84.7127 9.99177 84.2899 9.73885 83.9453 9.40929L83.405 10.1221C83.8122 10.5742 84.4308 10.9115 85.347 10.9115Z" fill="#414141"/>
<path d="M88.7678 10.9115C89.1828 10.9115 89.4882 10.5896 89.4882 10.1757C89.4882 9.76184 89.1828 9.43995 88.7678 9.43995C88.3606 9.43995 88.0552 9.76184 88.0552 10.1757C88.0552 10.5896 88.3606 10.9115 88.7678 10.9115Z" fill="#414141"/>
<path d="M92.0424 10.9115C93.2169 10.9115 94 9.8998 94 7.94544C94 5.99107 93.2169 5.02539 92.0424 5.02539C90.86 5.02539 90.077 5.98341 90.077 7.94544C90.077 9.8998 90.86 10.9115 92.0424 10.9115ZM92.0424 10.0301C91.5412 10.0301 91.1654 9.53958 91.1654 7.94544C91.1654 6.35895 91.5412 5.8991 92.0424 5.8991C92.5357 5.8991 92.9115 6.35895 92.9115 7.94544C92.9115 9.53958 92.5357 10.0301 92.0424 10.0301Z" fill="#414141"/>
<path d="M104.424 6.886H106.664V5.948H100.938V6.886H103.318V8.02C103.318 10.33 102.338 12.612 100.588 13.662L101.288 14.516C102.534 13.732 103.444 12.262 103.878 10.54C104.312 12.136 105.18 13.48 106.398 14.208L107.098 13.368C105.362 12.388 104.424 10.204 104.424 8.02V6.886ZM107.784 8.986H105.712V9.924H107.784V16.378H108.876V4.758H107.784V8.986ZM110.304 4.464V17.022H111.41V4.464H110.304ZM120.929 6.186C120.929 7.166 120.929 8.09 120.593 9.378L121.713 9.504C122.063 8.216 122.063 7.194 122.063 6.186V5.122H113.509V6.046H120.929V6.186ZM117.779 16.126C115.819 16.126 114.559 15.594 114.559 14.726C114.559 13.83 115.819 13.298 117.779 13.298C119.753 13.298 121.013 13.83 121.013 14.726C121.013 15.594 119.753 16.126 117.779 16.126ZM117.779 12.416C115.105 12.416 113.411 13.27 113.411 14.726C113.411 16.154 115.105 17.022 117.779 17.022C120.453 17.022 122.161 16.154 122.161 14.726C122.161 13.27 120.453 12.416 117.779 12.416ZM117.961 10.33V7.922H116.813V10.33H112.179V11.268H123.477V10.33H117.961Z" fill="#9B9B9B"/>
<defs>
<clipPath id="clip0_1246_379">
<rect width="13" height="14" fill="white" transform="translate(1 4)"/>
</clipPath>
</defs>
</svg>
