<svg width="82" height="82" viewBox="0 0 82 82" fill="none" xmlns="http://www.w3.org/2000/svg">
<g filter="url(#filter0_d_925_551)">
<rect x="16" y="11" width="50" height="50" rx="8" fill="white"/>
<rect x="16.5" y="11.5" width="49" height="49" rx="7.5" stroke="#E97869"/>
</g>
<g clip-path="url(#clip0_925_551)">
<path d="M41 30.7786L40.0141 29.7652C37.7 27.3864 33.4567 28.2073 31.925 31.1979C31.2059 32.6046 31.0436 34.6354 32.3567 37.2273C33.6217 39.7229 36.2535 42.7122 41 45.9682C45.7465 42.7122 48.3769 39.7229 49.6432 37.2273C50.9564 34.6341 50.7955 32.6046 50.075 31.1979C48.5432 28.2073 44.3 27.3851 41.9859 29.7638L41 30.7786ZM41 47.6251C19.9171 33.6936 34.5086 22.8201 40.758 28.5717C40.8405 28.6473 40.9216 28.7257 41 28.8068C41.0776 28.7258 41.1583 28.6478 41.242 28.5731C47.49 22.8173 62.0829 33.6922 41 47.6251Z" fill="#E97869"/>
</g>
<defs>
<filter id="filter0_d_925_551" x="0" y="0" width="82" height="82" filterUnits="userSpaceOnUse" color-interpolation-filters="sRGB">
<feFlood flood-opacity="0" result="BackgroundImageFix"/>
<feColorMatrix in="SourceAlpha" type="matrix" values="0 0 0 0 0 0 0 0 0 0 0 0 0 0 0 0 0 0 127 0" result="hardAlpha"/>
<feMorphology radius="4" operator="dilate" in="SourceAlpha" result="effect1_dropShadow_925_551"/>
<feOffset dy="5"/>
<feGaussianBlur stdDeviation="6"/>
<feComposite in2="hardAlpha" operator="out"/>
<feColorMatrix type="matrix" values="0 0 0 0 0.898039 0 0 0 0 0.898039 0 0 0 0 0.898039 0 0 0 0.25 0"/>
<feBlend mode="normal" in2="BackgroundImageFix" result="effect1_dropShadow_925_551"/>
<feBlend mode="normal" in="SourceGraphic" in2="effect1_dropShadow_925_551" result="shape"/>
</filter>
<clipPath id="clip0_925_551">
<rect width="22" height="22" fill="white" transform="translate(30 27)"/>
</clipPath>
</defs>
</svg>
