<svg width="30" height="40" viewBox="0 0 30 40" fill="none" xmlns="http://www.w3.org/2000/svg">
<path d="M30 15C30 23.2843 15.2843 40 15 40C14.7157 40 0 23.2843 0 15C0 6.71573 6.71573 0 15 0C23.2843 0 30 6.71573 30 15Z" fill="#8F7BF7"/>
<circle cx="15" cy="15" r="10" fill="white"/>
<path d="M10.6002 14L9.00024 12L10.6002 10H17.0002V11.6" stroke="#4B45E7"/>
<rect x="16.5002" y="8" width="1" height="3" fill="#4B45E7"/>
<rect x="12.0002" y="17" width="1" height="3" fill="#4B45E7"/>
<path d="M13.0002 12.5H12.5002V13V17V17.5H13.0002H19.4002H19.6406L19.7907 17.3123L21.3907 15.3123L21.6406 15L21.3907 14.6877L19.7907 12.6877L19.6406 12.5H19.4002H13.0002Z" fill="#4B45E7" stroke="#4B45E7"/>
<circle cx="15" cy="15" r="10" fill="white"/>
<g clip-path="url(#clip0_1601_1116)">
<path d="M15 14C14.337 14 13.7011 13.7366 13.2322 13.2678C12.7634 12.7989 12.5 12.163 12.5 11.5C12.5 10.837 12.7634 10.2011 13.2322 9.73223C13.7011 9.26339 14.337 9 15 9C15.663 9 16.2989 9.26339 16.7678 9.73223C17.2366 10.2011 17.5 10.837 17.5 11.5C17.5 12.163 17.2366 12.7989 16.7678 13.2678C16.2989 13.7366 15.663 14 15 14ZM15 9.83333C14.558 9.83333 14.134 10.0089 13.8215 10.3215C13.5089 10.6341 13.3333 11.058 13.3333 11.5C13.3333 11.942 13.5089 12.366 13.8215 12.6785C14.134 12.9911 14.558 13.1667 15 13.1667C15.442 13.1667 15.866 12.9911 16.1785 12.6785C16.4911 12.366 16.6667 11.942 16.6667 11.5C16.6667 11.058 16.4911 10.6341 16.1785 10.3215C15.866 10.0089 15.442 9.83333 15 9.83333Z" fill="#8F7BF7"/>
<path d="M20 21H19.1667V17.3936C19.1667 16.9704 18.9911 16.5645 18.6785 16.2653C18.366 15.966 17.942 15.7979 17.5 15.7979H12.5C12.058 15.7979 11.634 15.966 11.3215 16.2653C11.0089 16.5645 10.8333 16.9704 10.8333 17.3936V21H10V17.3936C10 16.7588 10.2634 16.15 10.7322 15.7011C11.2011 15.2522 11.837 15 12.5 15H17.5C18.163 15 18.7989 15.2522 19.2678 15.7011C19.7366 16.15 20 16.7588 20 17.3936V21Z" fill="#8F7BF7"/>
<circle cx="15" cy="11.5" r="2.5" fill="#8F7BF7"/>
</g>
<path d="M10 17V21H20V17L18.8889 15.5H11.1111L10 17Z" fill="#8F7BF7"/>
<defs>
<clipPath id="clip0_1601_1116">
<rect width="10" height="11" fill="white" transform="translate(10 9)"/>
</clipPath>
</defs>
</svg>
