<svg width="30" height="40" viewBox="0 0 30 40" fill="none" xmlns="http://www.w3.org/2000/svg">
<path d="M30 15C30 23.2843 15.2843 40 15 40C14.7157 40 0 23.2843 0 15C0 6.71573 6.71573 0 15 0C23.2843 0 30 6.71573 30 15Z" fill="#4B45E7"/>
<circle cx="15" cy="15" r="10" fill="white"/>
<path d="M10.6002 14L9.00024 12L10.6002 10H17.0002V11.6" stroke="#4B45E7"/>
<rect x="16.5002" y="8" width="1" height="3" fill="#4B45E7"/>
<rect x="12.0002" y="17" width="1" height="3" fill="#4B45E7"/>
<path d="M13.0002 12.5H12.5002V13V17V17.5H13.0002H19.4002H19.6406L19.7907 17.3123L21.3907 15.3123L21.6406 15L21.3907 14.6877L19.7907 12.6877L19.6406 12.5H19.4002H13.0002Z" fill="#4B45E7" stroke="#4B45E7"/>
<circle cx="15" cy="15" r="10" fill="white"/>
<path d="M13 8C13 7.44772 13.4477 7 14 7H16C16.5523 7 17 7.44772 17 8V13H13V8Z" stroke="#4B45E7"/>
<rect x="10" y="10" width="10" height="11" rx="1" fill="#4B45E7"/>
<circle cx="12.5" cy="21" r="1.1" stroke="#4B45E7" stroke-width="0.8"/>
<circle cx="17.5" cy="21" r="1.1" stroke="#4B45E7" stroke-width="0.8"/>
</svg>
